<svg width="648" height="505" viewBox="0 0 648 505" fill="none" xmlns="http://www.w3.org/2000/svg">
<path d="M118.333 89.6666V179L126.066 182.867C136.333 188.067 158.466 194.867 168.333 195.933C178.866 197 181 198.2 181 203.133C181 214.6 159.666 223 130.733 223H118.333V267.133V311.267L203.133 310.733L287.933 310.067L292.466 302.867C304.066 284.733 309.4 262.867 309.4 234.333C309.4 187 297.933 168.467 254.2 145.533C223.266 129.4 213 114.733 221.133 98.8666C226.066 89.1333 238.466 86.0666 255 90.3333C266.066 93.2666 274.6 98.3333 284.066 107.533C303.266 126.333 315.666 149.667 324.866 184.6C333.4 216.733 337 245.933 337.4 284.867L337.666 309.667H343.133C355.266 309.667 379.666 303.4 395.533 296.067C415.533 287 439 268.2 452.333 251C465.933 233.4 476.2 212.2 481.133 191.667C484.733 176.6 485.933 149 483.8 133.533C479 101.533 464.866 72.4666 442.466 49.1333C416.333 22.0666 383.133 5.39992 346.733 1.26659C339.8 0.466585 339.933 -0.066748 343.533 20.9999C351.666 67.3999 359.133 98.5999 377.8 165.667C393.4 221.667 394.333 225.4 395.933 238.333C396.733 244.867 397 252.6 396.466 255.533C394.333 266.467 383.666 270.733 376.6 263.267C369.266 255.667 364.466 241.4 357.133 204.6C343.933 138.867 334.6 106.867 318.6 71.6666C307 46.1999 293.8 27.5333 274.866 9.79992L264.733 0.333252H191.533H118.333V89.6666Z" fill="white"/>
<path d="M251.933 408.466C227.133 412.066 213.133 424.6 212.999 443.266C212.999 449.4 213.666 451.533 216.466 454.866C220.733 459.933 227.399 461.933 252.999 465.666C263.666 467.266 273.666 469.4 275.399 470.466C284.866 476.6 269.933 485.266 255.266 482.2C251.133 481.266 249.266 480.066 247.933 477.266L246.199 473.666H224.866H203.666V479.933C203.666 496.733 219.666 504.333 255.133 504.333C283.933 504.333 302.866 498.733 312.866 487.533C319.399 480.066 321.533 474.2 320.733 464.866C319.533 451.4 313.799 448.333 279.533 443C265.533 440.733 253.533 438.6 252.866 438.2C250.466 436.733 251.799 432.333 255.133 430.066C262.599 425.266 282.333 428.333 282.333 434.333C282.333 436.066 285.666 436.333 303.133 436.333H324.066L323.399 429.666C322.599 421.933 319.399 417.666 310.999 413.4C300.599 408.066 271.933 405.666 251.933 408.466Z" fill="white"/>
<path d="M438.466 409C406.866 415 387.666 437.666 387.666 469C387.666 480.6 390.599 487.4 398.199 493.933C405.799 500.466 414.999 503.133 432.466 503.933C453.399 505 465.399 502.466 481.133 494.066C481.666 493.8 482.733 495.4 483.399 497.666C484.733 501.4 485.266 501.666 492.066 501.666C500.599 501.666 499.133 504.466 504.999 475.666C507.133 465.4 509.133 455.4 509.666 453.266L510.599 449.666H485.133C459.799 449.666 459.666 449.666 458.999 452.6C457.133 461.133 455.666 467.8 455.666 468.6C455.666 469.266 458.733 469.666 462.333 469.666C469.533 469.666 469.666 469.8 467.533 473.933C464.066 480.466 446.733 483.666 435.666 479.933C429.533 477.8 424.999 470.866 424.999 463.666C424.999 448.866 434.199 434.333 445.666 431.133C457.666 427.8 470.199 431 471.666 437.666L472.466 441L492.866 441.4L513.399 441.8L512.599 434.866C510.333 416.6 496.733 408.866 464.333 407.666C453.799 407.266 444.999 407.666 438.466 409Z" fill="white"/>
<path d="M18.9998 410.999C18.7331 411.533 17.2665 418.066 15.6665 425.799C14.0665 433.399 12.3331 442.066 11.6665 444.999C10.8665 447.933 8.1998 460.866 5.66646 473.666C2.9998 486.466 0.599796 498.066 0.199796 499.266C-0.46687 501.533 1.93313 501.666 37.9331 501.666C79.5331 501.666 88.5998 500.599 100.6 494.599C117.533 485.933 129 461.266 127.4 437.533C126.066 420.333 117.933 413.399 96.1998 410.866C84.0665 409.533 19.7998 409.666 18.9998 410.999ZM76.8665 433.799C88.4665 436.199 92.3331 444.733 88.3331 458.466C85.6665 467.799 78.7331 475.399 70.9998 477.533C65.5331 478.999 42.0665 479.533 40.7331 478.199C40.3331 477.799 40.7331 474.066 41.6665 469.933C42.5998 465.799 44.7331 456.066 46.3331 448.466C47.7998 440.733 49.3998 434.066 49.7998 433.399C50.7331 431.799 68.9998 432.066 76.8665 433.799Z" fill="white"/>
<path d="M347.533 413.267C347 414.867 344.067 427.8 341.133 441.933C338.2 456.067 334.333 474.733 332.467 483.4C330.6 492.067 329 499.8 329 500.467C329 501.267 336.2 501.533 346.733 501.4L364.333 501L369.267 477C371.933 463.8 376.067 443.8 378.467 432.733C380.867 421.533 382.467 411.933 381.933 411.533C381.533 411.133 373.933 410.6 364.867 410.6C349.267 410.333 348.6 410.467 347.533 413.267Z" fill="white"/>
<path d="M537.133 411.666C536.333 412.733 522.333 478.2 518.866 497.266L518.066 501.666H534.733C549.533 501.666 551.533 501.4 552.2 499.266C552.6 498.066 554.733 487.4 557.133 475.666C559.4 463.933 561.666 453.533 562.333 452.466C563 451.266 567.933 459.4 577.133 476.2L590.866 501.8L610.2 501.4L629.533 501L630.6 496.333C634.333 479.4 647.666 413.8 647.666 412.2C647.666 410.733 644.866 410.333 631.4 410.6L615 410.733L612.866 420.6C611.666 425.933 609.266 437.133 607.533 445.266C605.8 453.533 604.066 460.333 603.666 460.333C603.266 460.333 597.266 449.133 590.2 435.4L577.4 410.6L557.8 410.466C546.066 410.333 537.666 410.866 537.133 411.666Z" fill="white"/>
<path d="M149.4 454.6C149 455.933 146.867 460.867 144.733 465.533C142.733 470.2 141 474.2 141 474.467C141 474.733 151.4 475 164.067 475H187L191 464.733C193.267 459.133 195.267 454.067 195.4 453.4C195.667 452.867 185.667 452.333 173.133 452.333C152.6 452.333 150.2 452.6 149.4 454.6Z" fill="white"/>
</svg>
