<?xml version="1.0" encoding="utf-8"?>
<!-- Generator: Adobe Illustrator 27.2.0, SVG Export Plug-In . SVG Version: 6.00 Build 0)  -->
<svg version="1.1" id="Layer_1" xmlns="http://www.w3.org/2000/svg" xmlns:xlink="http://www.w3.org/1999/xlink" x="0px" y="0px"
	 viewBox="0 0 78 78" style="enable-background:new 0 0 78 78;" xml:space="preserve">
<style type="text/css">
	.st0{fill:#FFFFFF;filter:url(#Adobe_OpacityMaskFilter);}
	.st1{mask:url(#mask0_1_420_00000075152690769310103030000014532331774042077575_);}
	.st2{fill-rule:evenodd;clip-rule:evenodd;fill:url(#SVGID_1_);}
</style>
<defs>
	<filter id="Adobe_OpacityMaskFilter" filterUnits="userSpaceOnUse" x="0" y="0" width="78" height="78">
		<feColorMatrix  type="matrix" values="1 0 0 0 0  0 1 0 0 0  0 0 1 0 0  0 0 0 1 0"/>
	</filter>
</defs>
<mask maskUnits="userSpaceOnUse" x="0" y="0" width="78" height="78" id="mask0_1_420_00000075152690769310103030000014532331774042077575_">
	<path class="st0" d="M78,0H0v78h78V0z"/>
</mask>
<g class="st1">
	
		<linearGradient id="SVGID_1_" gradientUnits="userSpaceOnUse" x1="-195.8719" y1="223.2545" x2="-131.5219" y2="163.3895" gradientTransform="matrix(1 0 0 -1 202.5 232.1388)">
		<stop  offset="0" style="stop-color:#E9B8FF"/>
		<stop  offset="1" style="stop-color:#F9ECFF"/>
	</linearGradient>
	<path class="st2" d="M19.5,39C30.3,39,39,30.3,39,19.5C39,30.3,47.7,39,58.5,39C47.7,39,39,47.7,39,58.5C39,47.7,30.3,39,19.5,39z
		 M19.5,39C8.7,39,0,47.7,0,58.5C0,69.3,8.7,78,19.5,78C30.3,78,39,69.3,39,58.5C39,69.3,47.7,78,58.5,78S78,69.3,78,58.5
		C78,47.7,69.3,39,58.5,39C69.3,39,78,30.3,78,19.5C78,8.7,69.3,0,58.5,0S39,8.7,39,19.5C39,8.7,30.3,0,19.5,0C8.7,0,0,8.7,0,19.5
		C0,30.3,8.7,39,19.5,39z"/>
</g>
</svg>
