<?xml version="1.0" encoding="utf-8"?>
<!-- Generator: Adobe Illustrator 27.2.0, SVG Export Plug-In . SVG Version: 6.00 Build 0)  -->
<svg version="1.1" id="Layer_1" xmlns="http://www.w3.org/2000/svg" xmlns:xlink="http://www.w3.org/1999/xlink" x="0px" y="0px"
	 viewBox="0 0 78 78" style="enable-background:new 0 0 78 78;" xml:space="preserve">
<style type="text/css">
	.st0{fill:#FFFFFF;filter:url(#Adobe_OpacityMaskFilter);}
	.st1{mask:url(#mask0_1_414_00000136392872189216831980000013887816561000023469_);}
	.st2{fill-rule:evenodd;clip-rule:evenodd;fill:url(#SVGID_1_);}
</style>
<defs>
	<filter id="Adobe_OpacityMaskFilter" filterUnits="userSpaceOnUse" x="0" y="0" width="78" height="78">
		<feColorMatrix  type="matrix" values="1 0 0 0 0  0 1 0 0 0  0 0 1 0 0  0 0 0 1 0"/>
	</filter>
</defs>
<mask maskUnits="userSpaceOnUse" x="0" y="0" width="78" height="78" id="mask0_1_414_00000136392872189216831980000013887816561000023469_">
	<path class="st0" d="M78,0H0v78h78V0z"/>
</mask>
<g class="st1">
	
		<linearGradient id="SVGID_1_" gradientUnits="userSpaceOnUse" x1="-163.5" y1="217.5711" x2="-163.5" y2="139.5711" gradientTransform="matrix(1 0 0 -1 202.5 217.5711)">
		<stop  offset="0" style="stop-color:#DF99F7"/>
		<stop  offset="1" style="stop-color:#FFDBB0"/>
	</linearGradient>
	<path class="st2" d="M39,78c21.5,0,39-17.5,39-39C78,17.5,60.5,0,39,0C17.5,0,0,17.5,0,39C0,60.5,17.5,78,39,78z M39,56.1
		c9.4,0,17.1-7.6,17.1-17.1c0-9.4-7.6-17.1-17.1-17.1c-9.4,0-17.1,7.6-17.1,17.1C21.9,48.4,29.6,56.1,39,56.1z"/>
</g>
</svg>
