<svg width="208" height="208" viewBox="0 0 208 208" fill="none" xmlns="http://www.w3.org/2000/svg">
<path d="M103.767 30.1359C119.146 30.1359 131.728 18.6407 133.592 3.72815C124.117 1.39805 114.175 0 103.767 0C93.5147 0 83.4176 1.39805 73.9419 3.72815C75.806 18.6407 88.3885 30.1359 103.767 30.1359ZM3.72816 73.9418C18.6408 75.8058 30.1359 88.3884 30.1359 103.767C30.1359 119.146 18.6408 131.729 3.72816 133.592C1.24272 124.117 0 114.019 0 103.767C0 93.5146 1.24272 83.4175 3.72816 73.9418ZM57.1647 103.768C57.1647 109.001 52.9222 113.244 47.689 113.244C42.4556 113.244 38.2132 109.001 38.2132 103.768C38.2132 98.5344 42.4556 94.2921 47.689 94.2921C52.9222 94.2921 57.1647 98.5344 57.1647 103.768ZM177.864 103.767C177.864 119.146 189.359 131.729 204.272 133.592C206.758 124.117 208 114.019 208 103.767C208 93.5146 206.758 83.4175 204.272 73.9418C189.359 75.8058 177.864 88.3884 177.864 103.767ZM169.785 103.768C169.785 109.001 165.543 113.244 160.31 113.244C155.077 113.244 150.834 109.001 150.834 103.768C150.834 98.5344 155.077 94.2921 160.31 94.2921C165.543 94.2921 169.785 98.5344 169.785 103.768ZM103.767 177.864C88.3885 177.864 75.806 189.359 73.9419 204.272C83.4176 206.758 93.5147 208 103.767 208C114.02 208 124.117 206.758 133.592 204.272C131.728 189.359 119.146 177.864 103.767 177.864ZM113.244 160.465C113.244 165.698 109.002 169.94 103.768 169.94C98.5346 169.94 94.2921 165.698 94.2921 160.465C94.2921 155.232 98.5346 150.989 103.768 150.989C109.002 150.989 113.244 155.232 113.244 160.465ZM113.244 47.6889C113.244 52.9221 109.002 57.1646 103.768 57.1646C98.5346 57.1646 94.2921 52.9221 94.2921 47.6889C94.2921 42.4556 98.5346 38.2131 103.768 38.2131C109.002 38.2131 113.244 42.4556 113.244 47.6889ZM156.117 156.115C145.244 166.989 144.467 184.077 153.632 195.883C171.031 185.63 185.632 171.029 195.73 153.785C184.078 144.465 166.991 145.242 156.117 156.115ZM153.165 143.689C153.165 148.922 148.923 153.164 143.689 153.164C138.456 153.164 134.213 148.922 134.213 143.689C134.213 138.456 138.456 134.213 143.689 134.213C148.923 134.213 153.165 138.456 153.165 143.689ZM51.7292 51.7292C62.603 40.8554 63.3796 23.7681 54.2146 11.9623C36.8165 22.2147 22.2147 36.8166 12.1175 54.0593C23.768 63.3796 40.8554 62.4476 51.7292 51.7292ZM73.4748 63.999C73.4748 69.2323 69.2324 73.4747 63.999 73.4747C58.7658 73.4747 54.5233 69.2323 54.5233 63.999C54.5233 58.7656 58.7658 54.5233 63.999 54.5233C69.2324 54.5233 73.4748 58.7656 73.4748 63.999ZM155.961 51.5739C166.835 62.4476 183.922 63.2243 195.728 54.0593C185.476 36.6612 170.874 22.0593 153.631 11.9623C144.311 23.6127 145.242 40.7001 155.961 51.5739ZM153.165 63.999C153.165 69.2323 148.923 73.4747 143.689 73.4747C138.456 73.4747 134.213 69.2323 134.213 63.999C134.213 58.7656 138.456 54.5233 143.689 54.5233C148.923 54.5233 153.165 58.7656 153.165 63.999ZM51.574 155.962C40.7001 145.088 23.6128 144.312 11.807 153.476C22.0594 170.875 36.6614 185.477 53.904 195.73C63.2244 183.923 62.4477 166.836 51.574 155.962ZM73.4748 143.689C73.4748 148.922 69.2324 153.164 63.999 153.164C58.7658 153.164 54.5233 148.922 54.5233 143.689C54.5233 138.456 58.7658 134.213 63.999 134.213C69.2324 134.213 73.4748 138.456 73.4748 143.689Z" fill="url(#paint0_linear_2028_447)"/>
<defs>
<linearGradient id="paint0_linear_2028_447" x1="104" y1="0" x2="104" y2="208" gradientUnits="userSpaceOnUse">
<stop stop-color="#F78DA7"/>
<stop offset="1" stop-color="#F78DA7"/>
</linearGradient>
</defs>
</svg>
