<svg width="46" height="44" viewBox="0 0 46 44" fill="none" xmlns="http://www.w3.org/2000/svg">
<path d="M4.24967 32.4993V39.9993H12.0622L35.1038 17.8593L27.2913 10.3593L4.24967 32.4993ZM45.1038 34.7193L36.2497 43.2193L25.4163 32.8193L29.1038 29.2793L31.1872 31.2793L36.333 26.3193L39.2913 29.1593L36.2497 31.9993L38.458 33.9993L41.4163 31.1993L45.1038 34.7193ZM11.7705 19.6593L0.895508 9.2793L9.74967 0.779297L13.4163 4.3193L8.27051 9.2793L10.4997 11.3993L15.6247 6.4393L18.583 9.2793L15.6247 12.0993L17.708 14.0993L11.7705 19.6593ZM41.1455 11.9993C41.958 11.2193 41.958 9.9993 41.1455 9.1793L36.2705 4.5793C35.4997 3.7993 34.1455 3.7993 33.333 4.5793L29.4997 8.2393L37.3122 15.7393L41.1455 11.9993Z" fill="url(#paint0_linear_2021_447)"/>
<defs>
<linearGradient id="paint0_linear_2021_447" x1="22.9997" y1="0.779297" x2="22.9997" y2="43.2193" gradientUnits="userSpaceOnUse">
<stop stop-color="#FF003F"/>
<stop offset="1" stop-color="#F78DA7"/>
</linearGradient>
</defs>
</svg>
